<?xml version="1.0" encoding="UTF-8" standalone="no"?>
<svg
   xmlns:dc="http://purl.org/dc/elements/1.1/"
   xmlns:cc="http://creativecommons.org/ns#"
   xmlns:rdf="http://www.w3.org/1999/02/22-rdf-syntax-ns#"
   xmlns:svg="http://www.w3.org/2000/svg"
   xmlns="http://www.w3.org/2000/svg"
   xmlns:sodipodi="http://sodipodi.sourceforge.net/DTD/sodipodi-0.dtd"
   xmlns:inkscape="http://www.inkscape.org/namespaces/inkscape"
   width="900"
   height="650"
   viewBox="0 0 900 650"
   version="1.1"
   id="svg2"
   inkscape:version="0.48.4 r9939"
   sodipodi:docname="css3_lg.svg">
  <metadata
     id="metadata30">
    <rdf:RDF>
      <cc:Work
         rdf:about="">
        <dc:format>image/svg+xml</dc:format>
        <dc:type
           rdf:resource="http://purl.org/dc/dcmitype/StillImage" />
        <dc:title>Slice 1</dc:title>
      </cc:Work>
    </rdf:RDF>
  </metadata>
  <sodipodi:namedview
     pagecolor="#ffffff"
     bordercolor="#666666"
     borderopacity="1"
     objecttolerance="10"
     gridtolerance="10"
     guidetolerance="10"
     inkscape:pageopacity="0"
     inkscape:pageshadow="2"
     inkscape:window-width="1855"
     inkscape:window-height="1056"
     id="namedview28"
     showgrid="false"
     inkscape:zoom="0.56190476"
     inkscape:cx="149"
     inkscape:cy="210"
     inkscape:window-x="65"
     inkscape:window-y="24"
     inkscape:window-maximized="1"
     inkscape:current-layer="svg2" />
  <title
     id="title4">Slice 1</title>
  <description
     id="description6">Created with Sketch (http://www.bohemiancoding.com/sketch)</description>
  <defs
     id="defs8" />
  <path
     d="m 577.64871,29.746146 -37.87277,0 39.38535,42.737267 0,20.343116 -81.12395,0 0,-23.817753 39.37769,0 -39.37769,-42.7388 0,-20.3722641 79.61137,0 0,23.8484341 0,0 z m -95.69134,0 -37.87278,0 39.38382,42.737267 0,20.343116 -81.12395,0 0,-23.817753 39.38229,0 -39.38229,-42.7388 0,-20.3722641 79.61291,0 0,23.8484341 0,0 z m -94.75557,0.96799 -40.86725,0 0,37.297503 40.86725,0 0,24.81489 -69.91307,0 0,-86.9288171 69.91307,0 0,24.8164241 0,0 z m 0,0"
     id="Shape"
     inkscape:connector-curvature="0"
     style="fill:#131313;stroke:none" />
  <path
     d="M 261.59943,598.28111 220.071,132.51102 l 456.30496,0 -41.56679,465.69492 -186.86489,51.80507 -186.34485,-51.7299 z m 0,0"
     id="path13"
     inkscape:connector-curvature="0"
     style="fill:#1572b6;stroke:none" />
  <path
     d="m 448.22654,610.41396 150.99253,-41.86132 35.52414,-397.95714 -186.51667,0 0,439.81846 z m 0,0"
     id="path15"
     inkscape:connector-curvature="0"
     style="fill:#33a9dc;stroke:none" />
</svg>
