<?xml version="1.0" encoding="UTF-8" standalone="no"?>
<svg
   xmlns:dc="http://purl.org/dc/elements/1.1/"
   xmlns:cc="http://creativecommons.org/ns#"
   xmlns:rdf="http://www.w3.org/1999/02/22-rdf-syntax-ns#"
   xmlns:svg="http://www.w3.org/2000/svg"
   xmlns="http://www.w3.org/2000/svg"
   xmlns:sodipodi="http://sodipodi.sourceforge.net/DTD/sodipodi-0.dtd"
   xmlns:inkscape="http://www.inkscape.org/namespaces/inkscape"
   height="650"
   width="900"
   id="svg2"
   version="1.1"
   inkscape:version="0.48.4 r9939"
   sodipodi:docname="github_lg.svg">
  <metadata
     id="metadata10">
    <rdf:RDF>
      <cc:Work
         rdf:about="">
        <dc:format>image/svg+xml</dc:format>
        <dc:type
           rdf:resource="http://purl.org/dc/dcmitype/StillImage" />
        <dc:title></dc:title>
      </cc:Work>
    </rdf:RDF>
  </metadata>
  <defs
     id="defs8" />
  <sodipodi:namedview
     pagecolor="#ffffff"
     bordercolor="#666666"
     borderopacity="1"
     objecttolerance="10"
     gridtolerance="10"
     guidetolerance="10"
     inkscape:pageopacity="0"
     inkscape:pageshadow="2"
     inkscape:window-width="1855"
     inkscape:window-height="1056"
     id="namedview6"
     showgrid="false"
     fit-margin-top="0"
     fit-margin-left="0"
     fit-margin-right="0"
     fit-margin-bottom="0"
     inkscape:zoom="0.23046875"
     inkscape:cx="-208.27119"
     inkscape:cy="486.75162"
     inkscape:window-x="65"
     inkscape:window-y="24"
     inkscape:window-maximized="1"
     inkscape:current-layer="svg2" />
  <path
     d="M 445.82878,2.7059171 C 262.57763,2.7059171 114,151.28355 114,334.5347 c 0,146.63333 95.06895,270.98811 226.93719,314.85626 16.58755,3.03831 22.64342,-7.21015 22.64342,-15.95954 0,-7.89908 -0.30396,-34.06559 -0.46598,-61.772 -92.27368,20.05037 -111.7777,-39.12922 -111.7777,-39.12922 -15.10858,-38.3191 -36.84077,-48.52672 -36.84077,-48.52672 -30.15688,-20.57728 2.28781,-20.17221 2.28781,-20.17221 33.31638,2.30854 50.85665,34.18744 50.85665,34.18744 29.61053,50.71406 77.69135,36.05073 96.56736,27.54438 3.01627,-21.3874 11.60363,-36.05074 21.06335,-44.31405 -73.66081,-8.38451 -151.14931,-36.86087 -151.14931,-164.01091 0,-36.25359 12.94197,-65.82265 34.12652,-89.05326 -3.38245,-8.42534 -14.80527,-42.18762 3.28069,-87.85815 0,0 27.82825,-8.91142 91.2607,34.02541 26.45038,-7.39226 54.82563,-11.03784 83.03821,-11.15968 28.19248,0.12184 56.58717,3.8076 83.07903,11.19987 63.3119,-42.97702 91.18033,-34.02542 91.18033,-34.02542 18.14689,45.71136 6.72407,79.43281 3.32153,87.81797 21.26556,23.23061 34.10643,52.80031 34.10643,89.05326 0,127.4741 -77.61035,155.54474 -151.53428,163.76787 11.94972,10.28864 22.52158,30.46085 22.52158,61.40777 0,44.35488 -0.4459,80.12174 -0.4459,91.05848 0,8.83041 6.03514,19.15923 22.84564,15.91871 C 682.67028,605.44179 777.65757,481.08701 777.65757,334.5347 777.65757,151.28355 629.07993,2.7059171 445.82878,2.7059171 z"
     id="path4"
     inkscape:connector-curvature="0" />
</svg>
