<?xml version="1.0" encoding="UTF-8" standalone="no"?>
<svg
   xmlns:dc="http://purl.org/dc/elements/1.1/"
   xmlns:cc="http://creativecommons.org/ns#"
   xmlns:rdf="http://www.w3.org/1999/02/22-rdf-syntax-ns#"
   xmlns:svg="http://www.w3.org/2000/svg"
   xmlns="http://www.w3.org/2000/svg"
   xmlns:sodipodi="http://sodipodi.sourceforge.net/DTD/sodipodi-0.dtd"
   xmlns:inkscape="http://www.inkscape.org/namespaces/inkscape"
   viewBox="0 0 900 650"
   id="svg2"
   version="1.1"
   inkscape:version="0.48.4 r9939"
   width="100%"
   height="100%"
   sodipodi:docname="html_lg.svg">
  <metadata
     id="metadata30">
    <rdf:RDF>
      <cc:Work
         rdf:about="">
        <dc:format>image/svg+xml</dc:format>
        <dc:type
           rdf:resource="http://purl.org/dc/dcmitype/StillImage" />
        <dc:title>HTML5 Logo</dc:title>
      </cc:Work>
    </rdf:RDF>
  </metadata>
  <defs
     id="defs28" />
  <sodipodi:namedview
     pagecolor="#ffffff"
     bordercolor="#666666"
     borderopacity="1"
     objecttolerance="10"
     gridtolerance="10"
     guidetolerance="10"
     inkscape:pageopacity="0"
     inkscape:pageshadow="2"
     inkscape:window-width="1855"
     inkscape:window-height="1056"
     id="namedview26"
     showgrid="false"
     inkscape:zoom="0.23046875"
     inkscape:cx="-167.90941"
     inkscape:cy="139.6384"
     inkscape:window-x="65"
     inkscape:window-y="24"
     inkscape:window-maximized="1"
     inkscape:current-layer="svg2" />
  <title
     id="title4">HTML5 Logo</title>
  <g
     id="g3048"
     transform="matrix(1.2542373,0,0,1.2542373,137.02551,-165.25424)">
    <polygon
       transform="translate(0,138)"
       style="fill:#e44d26"
       id="polygon6"
       points="74.633,100.62 437.367,100.62 404.321,470.819 255.778,512 107.644,470.877 " />
    <polygon
       transform="translate(0,138)"
       style="fill:#f16529"
       id="polygon8"
       points="256,130.894 256,480.523 376.03,447.246 404.27,130.894 " />
    <polygon
       transform="translate(0,138)"
       style="fill:#ebebeb"
       id="polygon10"
       points="195.91,268.217 191.76,221.716 256,221.716 256,176.305 255.843,176.305 142.132,176.305 143.219,188.488 154.38,313.627 256,313.627 256,268.217 " />
    <polygon
       transform="translate(0,138)"
       style="fill:#ebebeb"
       id="polygon12"
       points="255.801,386.206 205.227,372.55 201.994,336.333 177.419,336.333 156.409,336.333 162.771,407.634 255.791,433.457 256,433.399 256,386.153 " />
    <path
       inkscape:connector-curvature="0"
       id="path14"
       d="m 108.382,138 h 23.077 v 22.8 h 21.11 V 138 h 23.078 v 69.044 H 152.57 v -23.12 h -21.11 v 23.12 H 108.383 V 138 z" />
    <path
       inkscape:connector-curvature="0"
       id="path16"
       d="M 205.994,160.896 H 185.678 V 138 h 63.72 v 22.896 h -20.325 v 46.148 h -23.078 v -46.148 z" />
    <path
       inkscape:connector-curvature="0"
       id="path18"
       d="m 259.511,138 h 24.063 l 14.802,24.26 14.787,-24.26 h 24.072 v 69.044 h -22.982 v -34.222 l -15.877,24.549 h -0.397 l -15.888,-24.549 v 34.222 h -22.58 V 138 z" />
    <path
       inkscape:connector-curvature="0"
       id="path20"
       d="m 348.72,138 h 23.084 v 46.222 h 32.453 v 22.822 H 348.72 V 138 z" />
    <polygon
       transform="translate(0,138)"
       style="fill:#ffffff"
       id="polygon22"
       points="306.49,372.521 255.843,386.191 255.843,433.435 348.937,407.634 349.62,399.962 360.291,280.411 361.399,268.217 349.162,268.217 255.843,268.217 255.843,313.627 311.761,313.627 " />
    <polygon
       transform="translate(0,138)"
       style="fill:#ffffff"
       id="polygon24"
       points="255.843,204.509 255.843,221.605 255.843,221.716 365.385,221.716 365.385,221.716 365.531,221.716 366.442,211.509 368.511,188.488 369.597,176.305 255.843,176.305 " />
  </g>
</svg>
